<?xml version="1.0" encoding="UTF-8" standalone="no"?>
<!-- Created with Inkscape (http://www.inkscape.org/) -->

<svg
   width="431.95868"
   height="644.62573"
   viewBox="0 0 114.28906 170.55721"
   version="1.1"
   id="svg7509"
   xml:space="preserve"
   xmlns:inkscape="http://www.inkscape.org/namespaces/inkscape"
   xmlns:sodipodi="http://sodipodi.sourceforge.net/DTD/sodipodi-0.dtd"
   xmlns="http://www.w3.org/2000/svg"
   xmlns:svg="http://www.w3.org/2000/svg"><sodipodi:namedview
     id="namedview7511"
     pagecolor="#ffffff"
     bordercolor="#666666"
     borderopacity="1.0"
     inkscape:showpageshadow="2"
     inkscape:pageopacity="0.0"
     inkscape:pagecheckerboard="0"
     inkscape:deskcolor="#d1d1d1"
     inkscape:document-units="mm"
     showgrid="false" /><defs
     id="defs7506" /><g
     inkscape:label="Capa 1"
     inkscape:groupmode="layer"
     id="layer1"
     transform="translate(458.61316,-52.0616)"><path
       id="path8929"
       style="fill:#ffffff;stroke-width:1.5;stroke-linecap:round;stroke-linejoin:round;stroke-miterlimit:11.3;paint-order:markers fill stroke"
       d="m -358.11391,52.061599 c -0.15449,0 -0.45964,0.142823 -0.69609,0.326078 -3.24871,2.51794 -8.32136,8.897609 -15.0399,18.915642 -4.54026,6.76999 -11.27425,17.651119 -11.27425,17.651119 -1.96863,3.215307 -3.9427,6.488016 -5.8937,9.770463 -14.36771,24.172919 -27.47155,48.525779 -27.72439,48.995979 l -0.41601,0.77773 -0.85576,0.21445 c -0.42295,0.10672 -0.83368,0.23091 -1.23042,0.37517 -3.24799,1.18114 -4.98312,2.50209 -6.00583,3.82406 -1.02272,1.32198 -1.42512,2.74773 -1.66399,4.49843 -0.47772,3.50144 -0.027,8.36475 -3.76927,12.62301 -2.44575,2.78295 -4.21933,5.19812 -4.963,6.86314 -0.37183,0.83252 -0.4672,1.4406 -0.44132,1.75597 0.0259,0.31537 0.0521,0.39778 0.36691,0.65836 0.62968,0.52117 2.91114,1.26548 7.00214,1.30638 4.09102,0.0409 9.92523,-0.47084 17.74414,-1.62523 2.2762,-0.33605 4.8752,-2.26884 6.92361,-5.70508 2.04842,-3.43621 3.49583,-8.26564 3.62717,-13.86478 0.0165,-0.70351 -0.0507,-1.37633 -0.19172,-2.02572 l -0.15038,-0.68936 0.31471,-0.6289 c 0.29548,-0.5913 13.16216,-26.35259 25.0176,-52.45313 1.9091,-4.203044 3.78291,-8.405533 5.5826,-12.522236 0,0 3.20714,-7.419385 5.63738,-13.349056 4.90549,-11.969156 7.90753,-20.99444 8.3013,-24.956616 l 0.0734,-0.735873 z m -31.68954,36.88147 c -17.67265,0.595666 -36.62772,8.32112 -49.37011,20.736721 -25.45067,24.79793 -25.97978,65.53241 -1.18184,90.98307 24.79792,25.45068 118.63694,32.41416 90.98359,1.18236 -56.07323,-63.3293 14.32343,-63.42846 1.18184,-90.98359 -4.30232,-9.02104 -11.37161,-15.01761 -19.87321,-18.432986 -1.84532,4.224782 -3.76891,8.538256 -5.72781,12.850896 -11.71886,25.79985 -24.17041,50.7509 -24.83828,52.08829 0.10588,0.70429 0.22256,1.4072 0.20516,2.14819 -0.14608,6.22741 -1.72944,11.69013 -4.19148,15.82023 -2.46205,4.13009 -5.85219,7.03636 -9.77511,7.61555 -7.93235,1.17113 -13.91134,1.71055 -18.36736,1.66605 -4.45602,-0.0445 -7.45582,-0.52147 -9.51362,-2.22467 -1.0289,-0.85159 -1.69738,-2.13161 -1.80248,-3.4122 -0.10509,-1.28057 0.23328,-2.50181 0.77515,-3.71501 1.08374,-2.42644 3.05758,-4.96915 5.60948,-7.87291 2.63889,-3.00274 2.2437,-6.35442 2.81222,-10.52132 0.28426,-2.08346 0.87606,-4.35516 2.4629,-6.40633 1.58684,-2.05118 4.07504,-3.77935 7.80314,-5.13509 0.24679,-0.0897 0.49702,-0.15161 0.74569,-0.22841 0.835,-1.55095 13.31728,-24.71265 27.40815,-48.419779 1.54105,-2.592729 3.09722,-5.17821 4.65398,-7.739062 z m 8.74933,82.101451 c 1.77182,0.0132 3.53665,0.78991 5.10719,2.5616 4.79745,5.41192 -7.25172,12.17277 8.2057,22.13508 7.62305,4.91308 -9.09496,12.20823 -15.69465,8.42119 -6.5997,-3.787 -10.27319,-13.69719 -8.20519,-22.13508 1.48641,-6.06474 6.05901,-11.0164 10.58695,-10.98279 z" /></g></svg>
