<?xml version="1.0" encoding="UTF-8" standalone="no"?>
<!-- Created with Inkscape (http://www.inkscape.org/) -->

<svg
   width="572.45532"
   height="455.81186"
   viewBox="0 0 151.46213 120.60021"
   version="1.1"
   id="svg7509"
   xml:space="preserve"
   xmlns:inkscape="http://www.inkscape.org/namespaces/inkscape"
   xmlns:sodipodi="http://sodipodi.sourceforge.net/DTD/sodipodi-0.dtd"
   xmlns="http://www.w3.org/2000/svg"
   xmlns:svg="http://www.w3.org/2000/svg"><sodipodi:namedview
     id="namedview7511"
     pagecolor="#ffffff"
     bordercolor="#666666"
     borderopacity="1.0"
     inkscape:showpageshadow="2"
     inkscape:pageopacity="0.0"
     inkscape:pagecheckerboard="0"
     inkscape:deskcolor="#d1d1d1"
     inkscape:document-units="mm"
     showgrid="false" /><defs
     id="defs7506" /><g
     inkscape:label="Capa 1"
     inkscape:groupmode="layer"
     id="layer1"
     transform="translate(474.8787,-487.4881)"><path
       style="fill:#ffffff;stroke-width:0.964158"
       d="m -468.17889,605.89978 c -7.10805,-3.48609 -5.85509,-12.33779 -6.41175,-18.91503 -0.33086,-27.12998 -0.47696,-54.27701 0.11942,-81.40319 0.23218,-6.00634 0.39873,-13.54287 6.93589,-16.25429 1.79084,-1.82791 4.08805,-1.98623 6.50231,-1.75864 42.54984,0 85.09967,0 127.64951,0 4.87404,2.93078 9.73285,7.37222 9.4404,13.57213 0.88303,26.90656 0.38897,53.84548 0.38711,80.76455 -0.4667,6.37844 0.79017,13.30199 -2.10949,19.20395 -2.08668,2.92693 -5.06183,5.96317 -8.49197,6.97909 -43.58178,0 -87.16355,0 -130.74533,0 -1.09203,-0.72952 -2.18407,-1.45905 -3.2761,-2.18857 z m 130.25976,-58.07129 c 0,-15.26583 0,-30.53166 0,-45.79749 -40.81601,0 -81.63203,0 -122.44804,0 0,30.53166 0,61.06332 0,91.59498 40.81601,0 81.63203,0 122.44804,0 0,-15.26583 0,-30.53166 0,-45.79749 z m -113.54622,25.48238 c 0.84942,-10.6783 11.56488,-18.38886 21.95123,-17.23272 10.52456,-1.18789 21.35455,6.77891 21.98825,17.61792 0.21651,2.38713 1.35697,5.61369 -2.27612,4.50339 -14.04437,0 -28.08873,0 -42.1331,0 0.15658,-1.62953 0.31316,-3.25906 0.46974,-4.88859 z m 60.51754,-2.82467 c 0,-2.57109 0,-5.14217 0,-7.71326 14.78375,0 29.56751,0 44.35126,0 0,5.14217 0,10.28435 0,15.42652 -14.78375,0 -29.56751,0 -44.35126,0 0,-2.57109 0,-5.14217 0,-7.71326 z m -46.28937,-25.30914 c -5.28907,-3.08305 -8.31428,-9.20496 -6.86084,-15.26878 0.94195,-7.223 8.5027,-12.19854 15.37241,-12.40464 7.67307,1.22118 15.16636,7.87416 14.0999,16.21127 -0.64918,10.75826 -13.54055,17.40023 -22.61147,11.46215 z m 46.28937,-5.06183 c 0,-2.4104 0,-4.82079 0,-7.23119 14.78375,0 29.56751,0 44.35126,0 0,4.82079 0,9.64158 0,14.46237 -14.78375,0 -29.56751,0 -44.35126,0 0,-2.41039 0,-4.82079 0,-7.23118 z"
       id="path19006" /></g></svg>
