<?xml version="1.0" encoding="UTF-8" standalone="no"?>
<!-- Created with Inkscape (http://www.inkscape.org/) -->

<svg
   width="752.03912"
   height="389.48047"
   viewBox="0 0 198.97701 103.05003"
   version="1.1"
   id="svg7509"
   xml:space="preserve"
   xmlns:inkscape="http://www.inkscape.org/namespaces/inkscape"
   xmlns:sodipodi="http://sodipodi.sourceforge.net/DTD/sodipodi-0.dtd"
   xmlns="http://www.w3.org/2000/svg"
   xmlns:svg="http://www.w3.org/2000/svg"><sodipodi:namedview
     id="namedview7511"
     pagecolor="#ffffff"
     bordercolor="#666666"
     borderopacity="1.0"
     inkscape:showpageshadow="2"
     inkscape:pageopacity="0.0"
     inkscape:pagecheckerboard="0"
     inkscape:deskcolor="#d1d1d1"
     inkscape:document-units="mm"
     showgrid="false" /><defs
     id="defs7506" /><g
     inkscape:label="Capa 1"
     inkscape:groupmode="layer"
     id="layer1"
     transform="translate(492.38566,93.091356)"><g
       aria-label="Aa"
       id="text14491"
       style="font-size:145.345px;line-height:1.25;font-family:Montserrat;-inkscape-font-specification:'Montserrat, @wght=800';font-variation-settings:'wght' 800;stroke-width:3.63362"
       transform="translate(-525.18881,-173.858)"><path
         id="path14493"
         style="fill:#ffffff"
         d="M 77.714636,80.766646 C 62.744116,114.68044 47.773686,148.59444 32.803166,182.50824 h 29.359448 c 2.64431,-6.58892 5.288539,-13.17783 7.932849,-19.76675 h 43.144657 c 2.64431,6.58892 5.28853,13.17783 7.93285,19.76675 h 29.9408 C 136.09481,148.59444 121.07606,114.68044 106.05709,80.766646 Z M 91.66779,108.98973 c 4.351923,10.84384 8.70413,21.6875 13.05605,32.53135 H 78.611739 c 4.351924,-10.84385 8.704127,-21.68751 13.056051,-32.53135 z" /><path
         id="path14495"
         style="fill:#ffffff"
         d="m 191.51958,102.42321 c -6.20138,0 -12.45097,0.82392 -18.74925,2.47116 -6.20138,1.55035 -11.53093,3.77849 -15.98817,6.68538 l 9.30228,18.74976 c 2.7131,-2.13172 6.00725,-3.77906 9.88311,-4.94181 3.87587,-1.25966 7.70354,-1.8893 11.48251,-1.8893 5.81379,0 10.02902,1.21096 12.64522,3.63337 2.46609,2.1138 3.80727,5.07116 4.0318,8.86613 h -15.65951 c -8.13932,0 -14.77697,0.96887 -19.91248,2.9068 -5.13553,1.84104 -8.96268,4.55438 -11.48199,8.13955 -2.42241,3.48828 -3.63389,7.65467 -3.63389,12.4995 0,4.55414 1.11433,8.67222 3.34295,12.35428 2.32552,3.68207 5.6685,6.58919 10.02885,8.72092 4.36034,2.13172 9.68989,3.19774 15.98817,3.19774 6.87965,0 12.40246,-1.35693 16.56901,-4.07004 2.86345,-1.88727 5.09,-4.36729 6.6859,-7.43469 v 10.19628 h 25.72608 v -43.74875 c 0,-12.49966 -3.53676,-21.65636 -10.61021,-27.47016 -6.97655,-5.91069 -16.86004,-8.86612 -29.65038,-8.86612 z m 0.72708,47.96399 h 11.91814 v 6.83111 c -1.16276,3.10069 -3.00387,5.42649 -5.52318,6.97684 -2.42241,1.45345 -5.13576,2.17971 -8.13955,2.17971 -3.19759,0 -5.71664,-0.72626 -7.55768,-2.17971 -1.84103,-1.45345 -2.76159,-3.3917 -2.76159,-5.81412 0,-2.42241 0.87224,-4.36015 2.61638,-5.8136 1.84103,-1.45344 4.99024,-2.18023 9.44748,-2.18023 z" /></g></g></svg>
