<?xml version="1.0" encoding="UTF-8" standalone="no"?>
<!-- Created with Inkscape (http://www.inkscape.org/) -->

<svg
   width="529.86536"
   height="465.3179"
   viewBox="0 0 140.19353 123.11535"
   version="1.1"
   id="svg7509"
   xml:space="preserve"
   xmlns:inkscape="http://www.inkscape.org/namespaces/inkscape"
   xmlns:sodipodi="http://sodipodi.sourceforge.net/DTD/sodipodi-0.dtd"
   xmlns="http://www.w3.org/2000/svg"
   xmlns:svg="http://www.w3.org/2000/svg"><sodipodi:namedview
     id="namedview7511"
     pagecolor="#ffffff"
     bordercolor="#666666"
     borderopacity="1.0"
     inkscape:showpageshadow="2"
     inkscape:pageopacity="0.0"
     inkscape:pagecheckerboard="0"
     inkscape:deskcolor="#d1d1d1"
     inkscape:document-units="mm"
     showgrid="false" /><defs
     id="defs7506" /><g
     inkscape:label="Capa 1"
     inkscape:groupmode="layer"
     id="layer1"
     transform="translate(463.61011,-673.78523)"><path
       style="fill:#8136bf;fill-opacity:1;stroke-width:0.815692"
       d="m -425.45749,765.29255 c -18.21301,-18.26938 -32.39269,-33.15706 -33.60095,-35.27867 -4.45748,-7.827 -5.77493,-18.88597 -3.35637,-28.17392 4.67674,-17.95989 23.55983,-30.36373 41.90231,-27.52458 8.0616,1.24782 15.05723,4.76232 21.52786,10.81527 l 5.45339,5.10137 5.24964,-4.91079 c 16.35739,-15.30153 38.31376,-15.38916 53.54211,-0.21372 5.52822,5.50902 8.95648,11.41618 10.49267,18.07971 1.944,8.43246 0.38694,19.54977 -3.75725,26.82666 -1.77044,3.10877 -64.25205,66.88673 -65.52717,66.88673 -0.22864,0 -14.59544,-14.22363 -31.92624,-31.60806 z"
       id="path19020"
       sodipodi:nodetypes="ssssscssssss" /></g></svg>
