<?xml version="1.0" encoding="UTF-8" standalone="no"?>
<!-- Created with Inkscape (http://www.inkscape.org/) -->

<svg
   width="163.26215mm"
   height="33.218994mm"
   viewBox="0 0 163.26215 33.218994"
   version="1.1"
   id="svg290"
   sodipodi:docname="proper.svg"
   inkscape:version="1.2 (dc2aedaf03, 2022-05-15)"
   xml:space="preserve"
   xmlns:inkscape="http://www.inkscape.org/namespaces/inkscape"
   xmlns:sodipodi="http://sodipodi.sourceforge.net/DTD/sodipodi-0.dtd"
   xmlns="http://www.w3.org/2000/svg"
   xmlns:svg="http://www.w3.org/2000/svg"><sodipodi:namedview
     id="namedview292"
     pagecolor="#ffffff"
     bordercolor="#666666"
     borderopacity="1.0"
     inkscape:pageshadow="2"
     inkscape:pageopacity="0.0"
     inkscape:pagecheckerboard="0"
     inkscape:document-units="mm"
     showgrid="false"
     showguides="false"
     inkscape:guide-bbox="true"
     inkscape:snap-global="true"
     inkscape:zoom="0.47126121"
     inkscape:cx="511.39367"
     inkscape:cy="859.396"
     inkscape:window-width="1366"
     inkscape:window-height="715"
     inkscape:window-x="-8"
     inkscape:window-y="-8"
     inkscape:window-maximized="1"
     inkscape:current-layer="layer1"
     inkscape:showpageshadow="2"
     inkscape:deskcolor="#d1d1d1"><sodipodi:guide
       position="-181.58043,125.86216"
       orientation="1,0"
       id="guide1075"
       inkscape:locked="false" /><sodipodi:guide
       position="-58.409164,117.54565"
       orientation="1,0"
       id="guide1077"
       inkscape:locked="false" /></sodipodi:namedview><defs
     id="defs287" /><g
     inkscape:label="Capa 1"
     inkscape:groupmode="layer"
     id="layer1"
     transform="translate(-233.5835,-276.37331)"><g
       aria-label="proper"
       id="text1675-7-7"
       style="font-weight:bold;font-size:36.1726px;line-height:1.25;font-family:Montserrat;-inkscape-font-specification:'Montserrat, Bold';fill:#ffffff;stroke-width:0.904316"
       inkscape:export-filename="..\..\Desktop\properlogo.svg"
       inkscape:export-xdpi="187.065"
       inkscape:export-ydpi="187.065"><path
         d="m 284.55205,301.59947 q -2.45974,0 -4.30454,-1.08518 -1.84481,-1.08518 -2.89381,-3.2917 -1.01283,-2.24271 -1.01283,-5.64293 0,-3.4364 0.97666,-5.64293 0.97666,-2.20652 2.82146,-3.2917 1.8448,-1.08518 4.41306,-1.08518 2.74911,0 4.91947,1.26604 2.20653,1.22987 3.47257,3.47257 1.30221,2.2427 1.30221,5.2812 0,3.07467 -1.30221,5.31737 -1.26604,2.2427 -3.47257,3.47257 -2.17036,1.22987 -4.91947,1.22987 z m -11.50289,6.7281 v -26.47834 h 5.38972 v 3.97899 l -0.10852,5.78761 0.36173,5.75145 v 10.96029 z m 10.52623,-11.35819 q 1.41073,0 2.49591,-0.65111 1.12135,-0.65111 1.77245,-1.8448 0.68728,-1.22987 0.68728,-2.89381 0,-1.70011 -0.68728,-2.89381 -0.6511,-1.19369 -1.77245,-1.8448 -1.08518,-0.65111 -2.49591,-0.65111 -1.41074,0 -2.53209,0.65111 -1.12135,0.65111 -1.77245,1.8448 -0.65111,1.1937 -0.65111,2.89381 0,1.66394 0.65111,2.89381 0.6511,1.19369 1.77245,1.8448 1.12135,0.65111 2.53209,0.65111 z"
         id="path365" /><path
         d="m 298.00827,301.31009 v -19.46086 h 5.38972 v 5.49824 l -0.75962,-1.5916 q 0.86814,-2.06184 2.78529,-3.11084 1.91714,-1.08518 4.66626,-1.08518 v 5.20885 q -0.36172,-0.0362 -0.6511,-0.0362 -0.28939,-0.0362 -0.61494,-0.0362 -2.31505,0 -3.76195,1.33838 -1.41073,1.30222 -1.41073,4.08751 v 9.18784 z"
         id="path367" /><path
         d="m 322.54706,301.59947 q -3.11085,0 -5.53441,-1.30221 -2.38739,-1.30222 -3.79812,-3.54492 -1.37456,-2.27887 -1.37456,-5.17268 0,-2.92998 1.37456,-5.17268 1.41073,-2.27888 3.79812,-3.54492 2.42356,-1.30221 5.53441,-1.30221 3.07467,0 5.49823,1.30221 2.42357,1.26604 3.79813,3.50875 1.37456,2.2427 1.37456,5.20885 0,2.89381 -1.37456,5.17268 -1.37456,2.2427 -3.79813,3.54492 -2.42356,1.30221 -5.49823,1.30221 z m 0,-4.63009 q 1.41073,0 2.53208,-0.65111 1.12135,-0.65111 1.77246,-1.8448 0.6511,-1.22987 0.6511,-2.89381 0,-1.70011 -0.6511,-2.89381 -0.65111,-1.19369 -1.77246,-1.8448 -1.12135,-0.65111 -2.53208,-0.65111 -1.41073,0 -2.53208,0.65111 -1.12135,0.65111 -1.80863,1.8448 -0.65111,1.1937 -0.65111,2.89381 0,1.66394 0.65111,2.89381 0.68728,1.19369 1.80863,1.8448 1.12135,0.65111 2.53208,0.65111 z"
         id="path369" /><path
         d="m 348.48284,301.59947 q -2.45974,0 -4.30454,-1.08518 -1.84481,-1.08518 -2.89381,-3.2917 -1.01283,-2.24271 -1.01283,-5.64293 0,-3.4364 0.97666,-5.64293 0.97666,-2.20652 2.82146,-3.2917 1.8448,-1.08518 4.41306,-1.08518 2.74911,0 4.91947,1.26604 2.20653,1.22987 3.47257,3.47257 1.30221,2.2427 1.30221,5.2812 0,3.07467 -1.30221,5.31737 -1.26604,2.2427 -3.47257,3.47257 -2.17036,1.22987 -4.91947,1.22987 z m -11.50289,6.7281 v -26.47834 h 5.38972 v 3.97899 l -0.10852,5.78761 0.36173,5.75145 v 10.96029 z m 10.52623,-11.35819 q 1.41073,0 2.49591,-0.65111 1.12135,-0.65111 1.77245,-1.8448 0.68728,-1.22987 0.68728,-2.89381 0,-1.70011 -0.68728,-2.89381 -0.6511,-1.19369 -1.77245,-1.8448 -1.08518,-0.65111 -2.49591,-0.65111 -1.41074,0 -2.53209,0.65111 -1.12135,0.65111 -1.77245,1.8448 -0.65111,1.1937 -0.65111,2.89381 0,1.66394 0.65111,2.89381 0.6511,1.19369 1.77245,1.8448 1.12135,0.65111 2.53209,0.65111 z"
         id="path371" /><path
         d="m 371.59715,301.59947 q -3.32788,0 -5.85996,-1.30221 -2.49591,-1.30222 -3.87047,-3.54492 -1.37456,-2.27887 -1.37456,-5.17268 0,-2.92998 1.33839,-5.17268 1.37456,-2.27888 3.72578,-3.54492 2.35122,-1.30221 5.31737,-1.30221 2.85764,0 5.13651,1.22987 2.31505,1.19369 3.65343,3.47257 1.33839,2.2427 1.33839,5.38971 0,0.32556 -0.0362,0.75963 -0.0362,0.3979 -0.0724,0.75962 H 365.086 v -3.2917 h 12.84128 l -2.17036,0.97666 q 0,-1.51925 -0.61493,-2.6406 -0.61494,-1.12135 -1.70012,-1.73629 -1.08517,-0.6511 -2.53208,-0.6511 -1.4469,0 -2.56825,0.6511 -1.08518,0.61494 -1.70011,1.77246 -0.61494,1.12135 -0.61494,2.67677 v 0.86815 q 0,1.59159 0.68728,2.82146 0.72345,1.19369 1.98949,1.8448 1.30222,0.61493 3.0385,0.61493 1.55542,0 2.71295,-0.47024 1.19369,-0.47024 2.17035,-1.41073 l 3.00233,3.25553 q -1.33839,1.51925 -3.36405,2.35122 -2.02567,0.7958 -4.66627,0.7958 z"
         id="path373" /><path
         d="m 384.76399,301.31009 v -19.46086 h 5.38972 v 5.49824 l -0.75963,-1.5916 q 0.86814,-2.06184 2.78529,-3.11084 1.91715,-1.08518 4.66627,-1.08518 v 5.20885 q -0.36173,-0.0362 -0.65111,-0.0362 -0.28938,-0.0362 -0.61493,-0.0362 -2.31505,0 -3.76195,1.33838 -1.41074,1.30222 -1.41074,4.08751 v 9.18784 z"
         id="path375" /></g><path
       id="path898-13-7"
       style="fill:#ffffff;stroke-width:0.0680114"
       d="m 255.73506,283.10849 a 6.7351933,6.7351933 0 0 1 -6.7352,6.73519 6.7351933,6.7351933 0 0 1 -6.73519,-6.73519 6.7351933,6.7351933 0 0 1 6.73519,-6.73519 6.7351933,6.7351933 0 0 1 6.7352,6.73519 z" /><path
       id="path898-6-7-8"
       style="fill:#ffffff;stroke-width:0.0790948"
       d="m 249.24906,300.94455 a 7.8327804,7.8327804 0 0 1 -7.83278,7.83278 7.8327804,7.8327804 0 0 1 -7.83279,-7.83278 7.8327804,7.8327804 0 0 1 7.83279,-7.83278 7.8327804,7.8327804 0 0 1 7.83278,7.83278 z" /><path
       id="path898-6-3-76-7"
       style="fill:#ffffff;stroke-width:0.0539053"
       d="m 264.53254,304.25406 a 5.3382645,5.3382645 0 0 1 -5.33827,5.33826 5.3382645,5.3382645 0 0 1 -5.33826,-5.33826 5.3382645,5.3382645 0 0 1 5.33826,-5.33827 5.3382645,5.3382645 0 0 1 5.33827,5.33827 z" /><path
       style="color:#000000;fill:#ffffff;stroke-width:0.25134"
       d="m 247.21361,282.37413 -8.46601,20.00799 20.08358,3.74604 0.69119,-3.70628 -15.47652,-2.88649 6.63988,-15.69199 z"
       id="path2659-1-0"
       inkscape:export-filename="C:\Users\Isaac\Documents\Diseño\properlogo.png"
       inkscape:export-xdpi="187.065"
       inkscape:export-ydpi="187.065" /></g></svg>
