<?xml version="1.0" encoding="UTF-8" standalone="no"?>
<!-- Created with Inkscape (http://www.inkscape.org/) -->

<svg
   width="522.95947"
   height="521.78418"
   viewBox="0 0 138.36635 138.05539"
   version="1.1"
   id="svg7509"
   xml:space="preserve"
   xmlns:inkscape="http://www.inkscape.org/namespaces/inkscape"
   xmlns:sodipodi="http://sodipodi.sourceforge.net/DTD/sodipodi-0.dtd"
   xmlns="http://www.w3.org/2000/svg"
   xmlns:svg="http://www.w3.org/2000/svg"><sodipodi:namedview
     id="namedview7511"
     pagecolor="#ffffff"
     bordercolor="#666666"
     borderopacity="1.0"
     inkscape:showpageshadow="2"
     inkscape:pageopacity="0.0"
     inkscape:pagecheckerboard="0"
     inkscape:deskcolor="#d1d1d1"
     inkscape:document-units="mm"
     showgrid="false" /><defs
     id="defs7506" /><g
     inkscape:label="Capa 1"
     inkscape:groupmode="layer"
     id="layer1"
     transform="translate(219.2304,-478.76053)"><path
       style="fill:#ffffff;stroke-width:0.456285"
       d="m -162.84417,616.73747 c -0.37642,-0.11744 -2.17304,-1.67335 -3.99248,-3.45756 -2.48608,-2.43798 -3.30806,-3.54966 -3.30806,-4.47398 0,-0.67648 1.53996,-6.20403 3.42213,-12.28345 1.88217,-6.07943 3.42213,-11.28176 3.42213,-11.56073 0,-0.27898 -5.33002,-5.83429 -11.84448,-12.34514 l -11.84449,-11.83791 -11.4108,3.51401 c -6.27594,1.93272 -11.998,3.51403 -12.71572,3.51403 -1.7969,0 -8.53007,-6.79293 -8.09424,-8.16608 0.4392,-1.38381 18.9374,-33.01243 19.88618,-34.00186 0.75788,-0.79031 2.27488,-0.95277 15.80731,-1.69276 8.23293,-0.45019 15.60499,-0.82678 16.38236,-0.83685 1.2397,-0.016 2.15223,-0.85337 7.42619,-6.81409 16.13246,-18.23328 29.60424,-28.47924 43.56003,-33.12965 9.52564,-3.17415 20.982499,-4.68706 33.029069,-4.36157 0.55887,0.0151 1.33965,0.52122 1.73508,1.1247 0.63216,0.96481 0.66032,1.98042 0.23333,8.41289 -0.92223,13.89277 -3.19975,23.34313 -7.98966,33.15242 -6.21945,12.73686 -15.599319,23.96598 -31.611659,37.84386 -4.63806,4.01979 -4.67717,4.07087 -4.70817,6.14716 -0.0172,1.15153 -0.37744,8.50539 -0.80055,16.34195 -0.7055,13.06675 -0.8448,14.32195 -1.67981,15.13716 -0.85453,0.83425 -32.05379,19.19688 -33.53483,19.73725 -0.37644,0.13734 -0.99243,0.15363 -1.36886,0.0362 z m 59.34637,-102.2019 c 3.37353,-1.71067 5.093799,-4.22336 5.353969,-7.82019 0.23672,-3.27267 -0.45312,-5.53217 -2.347869,-7.69017 -5.53284,-6.30155 -16.30813,-2.98997 -17.44948,5.36275 -0.41411,3.03064 0.49058,5.73272 2.69924,8.06184 3.31509,3.49593 7.49816,4.23885 11.74414,2.08577 z"
       id="path21212" /></g></svg>
