<?xml version="1.0" encoding="UTF-8" standalone="no"?>
<!-- Created with Inkscape (http://www.inkscape.org/) -->

<svg
   width="589.99994"
   height="588.70331"
   viewBox="0 0 156.10414 155.76107"
   version="1.1"
   id="svg7509"
   xml:space="preserve"
   xmlns:inkscape="http://www.inkscape.org/namespaces/inkscape"
   xmlns:sodipodi="http://sodipodi.sourceforge.net/DTD/sodipodi-0.dtd"
   xmlns="http://www.w3.org/2000/svg"
   xmlns:svg="http://www.w3.org/2000/svg"><sodipodi:namedview
     id="namedview7511"
     pagecolor="#ffffff"
     bordercolor="#666666"
     borderopacity="1.0"
     inkscape:showpageshadow="2"
     inkscape:pageopacity="0.0"
     inkscape:pagecheckerboard="0"
     inkscape:deskcolor="#d1d1d1"
     inkscape:document-units="mm"
     showgrid="false" /><defs
     id="defs7506" /><g
     inkscape:label="Capa 1"
     inkscape:groupmode="layer"
     id="layer1"
     transform="translate(479.52073,-266.03019)"><path
       id="path14502"
       style="font-variation-settings:'wght' 800;fill:#ffffff;stroke:none;stroke-width:4;stroke-linecap:round;stroke-linejoin:round;stroke-miterlimit:11.3;stroke-dasharray:none;paint-order:markers fill stroke"
       d="m -394.83236,266.03018 c -0.21376,0.16687 -0.42999,0.33062 -0.64234,0.49919 8.39691,7.96772 15.50591,17.27718 20.99149,27.58023 8.26937,-2.32618 16.09662,-5.6984 23.33914,-9.95598 a 78.230072,78.230072 0 0 0 -43.68829,-18.12344 z m -13.26172,0.108 a 78.230072,78.230072 0 0 0 -43.75754,18.0573 c 7.22282,4.23799 15.02634,7.59549 23.26887,9.91412 5.48556,-10.30305 12.59457,-19.61251 20.99148,-27.58023 -0.16629,-0.13201 -0.33566,-0.26022 -0.50281,-0.39119 z m 6.56135,5.61258 c -7.52427,7.02453 -13.95505,15.20269 -19.01331,24.2564 6.15426,1.18832 12.50922,1.81798 19.01331,1.81798 6.50411,0 12.85854,-0.62966 19.0128,-1.81798 -5.05826,-9.05371 -11.48851,-17.23187 -19.0128,-24.2564 z m 56.4348,18.04644 c -7.98585,4.94048 -16.66112,8.8713 -25.8532,11.59878 5.22004,11.89232 8.34761,24.90546 8.91728,38.57542 h 38.61729 a 78.230072,78.230072 0 0 0 -21.68137,-50.1742 z m -112.76004,0.0672 a 78.230072,78.230072 0 0 0 -21.66276,50.10702 h 38.48861 c 0.56968,-13.66996 3.69724,-26.6831 8.91728,-38.57542 -9.15,-2.715 -17.78751,-6.623 -25.74313,-11.5316 z m 33.57211,13.53458 c -5.09333,11.22795 -8.15913,23.57397 -8.74158,36.57244 h 62.98892 c -0.58247,-12.99847 -3.64824,-25.34449 -8.74159,-36.57244 -7.33603,1.58396 -14.94623,2.42621 -22.75262,2.42621 -7.80638,0 -15.4171,-0.84225 -22.75313,-2.42621 z m -55.23487,44.57247 a 78.230072,78.230072 0 0 0 19.64221,48.08647 c 8.04175,-5.21118 16.81703,-9.38495 26.14259,-12.31398 -4.37495,-11.14024 -6.93799,-23.1855 -7.33701,-35.77249 z m 46.45246,0 c 0.40449,11.86644 2.87914,23.20109 7.07812,33.65583 7.85818,-1.83164 16.0455,-2.80241 24.45742,-2.80241 8.41194,0 16.59873,0.97077 24.45691,2.80241 4.199,-10.45475 6.67415,-21.78937 7.07864,-33.65583 z m 71.07525,0 c -0.39903,12.58699 -2.96207,24.63225 -7.33702,35.77249 9.32571,2.92907 18.10119,7.10269 26.14311,12.31398 a 78.230072,78.230072 0 0 0 19.64221,-48.08647 z m -39.53971,38.85344 c -7.24348,0 -14.30249,0.77943 -21.10413,2.24534 5.32661,10.63216 12.50082,20.17207 21.10413,28.20397 8.60333,-8.0319 15.777,-17.57181 21.10363,-28.20397 -6.80166,-1.46591 -13.86013,-2.24534 -21.10363,-2.24534 z m -28.98789,4.28553 c -8.38977,2.54631 -16.30512,6.17408 -23.59184,10.71356 a 78.230072,78.230072 0 0 0 45.79513,19.96725 c -9.09319,-8.79104 -16.64824,-19.16345 -22.20329,-30.68081 z m 57.97527,0 c -5.55505,11.51736 -13.11009,21.88977 -22.20329,30.68081 a 78.230072,78.230072 0 0 0 45.79513,-19.96725 c -7.28679,-4.53948 -15.20205,-8.16725 -23.59184,-10.71356 z" /></g></svg>
